<?xml version="1.0" encoding="utf-8"?>
<!-- Generator: Adobe Illustrator 21.0.0, SVG Export Plug-In . SVG Version: 6.00 Build 0)  -->
<svg version="1.1" id="Layer_1" xmlns="http://www.w3.org/2000/svg" xmlns:xlink="http://www.w3.org/1999/xlink" x="0px" y="0px"
	 viewBox="0 0 16 16" style="enable-background:new 0 0 16 16;" xml:space="preserve">
<g id="Outline">
	<g>
		<path d="M13.7,12.4c0.1,0,0.2-0.1,0.2-0.2V4.5c0-0.1-0.1-0.2-0.2-0.2c0,0-0.1,0-0.1,0l-0.1,0.1c0-0.4-0.2-0.7-0.5-1
			c0.1,0,0.1,0,0.2,0l0.1,0c0.1,0,0.2-0.1,0.2-0.3s-0.1-0.2-0.3-0.2l0,0l-0.1,0c-0.2,0-0.4,0.1-0.5,0.2c-0.4-0.2-0.9-0.2-1.3-0.1
			c0.1-0.2,0.2-0.3,0.2-0.5c0-0.5-0.4-0.9-0.9-0.9c-0.1,0-0.1,0-0.2,0C9.9,1,9.2,0.9,8.7,1.3C8.6,1.4,8.5,1.4,8.5,1.6
			c-0.1,0-0.1,0-0.2,0c-0.5,0-0.9,0.4-0.9,0.9c0,0.1,0,0.1,0,0.2C6.9,3,6.7,3.7,7.1,4.2c0,0,0,0,0,0c0,0-0.1,0.1-0.1,0.1L5.9,2.5
			l0,0L5.7,2.1c-0.6-1-1.8-1.3-2.8-0.7c0,0,0,0,0,0c-0.5,0.3-0.7,1-0.4,1.5l0.3,0.4C2.8,3.5,3,3.5,3.1,3.4c0.1-0.1,0.1-0.2,0.1-0.3
			L2.9,2.7C2.7,2.3,2.8,1.9,3.1,1.7c0,0,0,0,0,0c0.8-0.4,1.7-0.2,2.2,0.6c0,0,0,0,0,0l0.1,0.2L4.6,3C4.5,3,4.5,3.2,4.6,3.3
			c0.1,0.1,0.2,0.1,0.3,0.1l0.8-0.5L6,3.5L5.2,4C5.1,4,5.1,4.2,5.1,4.3c0,0.1,0.1,0.1,0.1,0.1L4.3,5L3.6,3.8
			C3.5,3.7,3.4,3.7,3.3,3.8C3.2,3.8,3.1,4,3.2,4.1l0,0l0.4,0.6L2.9,4.3c-0.1-0.1-0.2,0-0.3,0.1c0,0,0,0.1,0,0.1v1.1
			c0,0.1,0.1,0.2,0.2,0.2S3,5.7,3,5.6V4.9l1,0.7c0.1,0.1,0.2,0.1,0.3,0l1.2-0.8l1.2,0.8c0.1,0.1,0.2,0.1,0.3,0l1.2-0.8l1.2,0.8
			c0.1,0.1,0.2,0.1,0.3,0l1-0.7v9.3H7.8c-0.1,0-0.2,0.1-0.2,0.2c0,0.1,0.1,0.2,0.2,0.2h5.9c0.1,0,0.2-0.1,0.2-0.2v-1.4
			c0-0.1-0.1-0.2-0.2-0.2c-0.1,0-0.2,0.1-0.2,0.2v0.8L12.5,13v-1.3c0-0.1-0.1-0.2-0.2-0.2s-0.2,0.1-0.2,0.2V13l-0.9,0.9v-9l0.9,0.6
			v2.8c0,0.1,0.1,0.2,0.2,0.2s0.2-0.1,0.2-0.2V5.5l0.9-0.6v7.3C13.5,12.3,13.6,12.4,13.7,12.4z M12.1,3.4C12,3.5,12,3.6,11.9,3.7
			c-0.1,0.1,0,0.2,0.1,0.3c0.1,0.1,0.2,0,0.3-0.1c0,0,0,0,0,0c0.1-0.1,0.2-0.2,0.2-0.3c0.3,0.2,0.5,0.6,0.5,1c0,0,0,0,0,0.1
			l-0.7,0.4l-1.2-0.8c0,0-0.1,0-0.1,0l0,0c0-0.2,0-0.3-0.1-0.5c0,0,0-0.1,0.1-0.1C11.2,3.4,11.7,3.3,12.1,3.4L12.1,3.4z M5.7,4.3
			C5.6,4.3,5.6,4.3,5.7,4.3l0.6-0.4l0.7,1.2l0,0L5.7,4.3z M9.6,5.1L8.7,4.5C8.9,4,9.4,3.6,9.9,3.4C10,3.4,10,3.3,10,3.1
			C10,3,9.8,3,9.7,3C9.4,3.1,9.2,3.3,9,3.4c0-0.3,0-0.6-0.1-0.8c0-0.1-0.2-0.2-0.3-0.2S8.4,2.6,8.5,2.7c0,0,0,0,0,0
			c0.1,0.5,0.1,1.1-0.2,1.5c-0.1,0-0.1,0-0.2,0L7.4,4.8c0-0.1,0.1-0.3,0.2-0.4c0.1-0.1,0.1-0.2,0-0.3c0,0,0,0,0,0
			C7.4,3.9,7.3,3.8,7.3,3.6c0-0.3,0.2-0.5,0.4-0.6c0.1-0.1,0.2-0.2,0.1-0.3c0,0,0,0,0,0c0-0.1-0.1-0.1-0.1-0.2C7.8,2.2,8,2,8.2,2
			c0.1,0,0.1,0,0.2,0c0.1,0.1,0.2,0,0.3-0.1c0,0,0,0,0,0c0.2-0.3,0.6-0.5,0.9-0.3C9.8,1.7,9.9,1.8,10,1.9C10,2,10.1,2,10.1,2
			c0.1,0,0.1,0,0.2,0c0.2-0.1,0.5,0,0.6,0.2c0.1,0.2,0,0.5-0.2,0.6c0,0-0.1,0-0.1,0c-0.1,0-0.2,0.2-0.2,0.3c0,0,0,0,0,0
			c0,0.1,0,0.1,0,0.2c0,0.1,0,0.2-0.1,0.3c-0.1,0.1-0.1,0.2,0,0.3c0.2,0.2,0.2,0.5,0,0.6c-0.1,0.1-0.2,0.1-0.3,0.1c0,0,0,0,0,0
			c-0.1,0-0.2,0.1-0.2,0.2c0,0,0,0,0,0.1L9.6,5.1z M12.3,13.4l0.8,0.8h-1.6L12.3,13.4z"/>
		<path d="M12.3,9.5c-0.1,0-0.2,0.1-0.2,0.2v0.9c0,0.1,0.1,0.2,0.2,0.2s0.2-0.1,0.2-0.2V9.7C12.5,9.6,12.4,9.5,12.3,9.5z"/>
		<path d="M7.6,12.3c-0.1,0-0.2,0.1-0.2,0.2c0,0,0,0,0,0c-0.1,0.7-0.5,1.7-0.9,1.7c-0.2,0-0.4-0.1-0.5-0.2C5.8,14,5.7,14,5.6,14
			c-0.2,0.1-0.3,0.2-0.5,0.2c-0.4,0-0.9-1.2-0.9-1.8c0-0.5,0.4-0.9,0.9-0.9c0.2,0,0.4,0.1,0.5,0.2c0.1,0.1,0.2,0.1,0.3,0
			c0.4-0.3,0.9-0.2,1.2,0.1c0.1,0.1,0.2,0.1,0.3,0c0.1-0.1,0.1-0.2,0-0.3c-0.3-0.3-0.6-0.5-1-0.5c-0.2,0-0.3,0-0.5,0.1
			c0-0.1,0-0.2-0.1-0.3h0.6c0.6,0,1.1-0.5,1.1-1.1c0-0.1-0.1-0.2-0.2-0.2H6.7c-0.5,0-1,0.3-1.1,0.8C5.5,10.2,5.3,10,5.2,9.9
			C5.1,9.9,5,9.9,4.9,10c-0.1,0.1,0,0.2,0.1,0.3c0.3,0.2,0.5,0.5,0.5,0.8c-0.1,0-0.3-0.1-0.4-0.1c-0.1,0-0.2,0-0.2,0v-0.3
			c0-0.5-0.2-0.9-0.5-1.3C4.1,9.3,3.9,8.9,3.9,8.6V7.6c0.1,0,0.2-0.1,0.2-0.2V6.5c0-0.1-0.1-0.2-0.2-0.2h-2c-0.1,0-0.2,0.1-0.2,0.2
			v0.9c0,0.1,0.1,0.2,0.2,0.2v0.9c0,0.4-0.1,0.7-0.4,0.9C1.2,9.9,1,10.3,1,10.8v3.7c0,0.1,0.1,0.2,0.2,0.2h2.5
			c0.1,0,0.2-0.1,0.2-0.2c0-0.1-0.1-0.2-0.2-0.2H1.4v-1.1h2.4c0.2,0.7,0.6,1.6,1.3,1.6c0.2,0,0.5-0.1,0.7-0.2
			c0.2,0.1,0.4,0.2,0.7,0.2c0.8,0,1.3-1.4,1.4-2.1C7.8,12.4,7.7,12.3,7.6,12.3C7.6,12.3,7.6,12.3,7.6,12.3z M6.7,9.9h0.4
			c-0.1,0.3-0.4,0.5-0.6,0.5H6C6.1,10.1,6.4,9.9,6.7,9.9z M2.1,6.7h1.6v0.5H2.1V6.7z M1.4,12.6v-1.1h2c0.1,0,0.2-0.1,0.2-0.2
			c0-0.1-0.1-0.2-0.2-0.2h-2v-0.3c0-0.4,0.1-0.7,0.4-0.9c0.3-0.3,0.5-0.8,0.5-1.3V7.6h1.1v0.9c0,0.5,0.2,0.9,0.5,1.3
			c0.2,0.2,0.4,0.6,0.4,0.9v0.4c-0.4,0.2-0.7,0.7-0.7,1.2c0,0.1,0,0.2,0,0.2H1.4z"/>
		<path d="M9.6,6.7h-2C7.4,6.7,7.3,6.8,7.3,7c0,0.1,0.1,0.2,0.2,0.2h2c0.1,0,0.2-0.1,0.2-0.2C9.8,6.8,9.7,6.7,9.6,6.7z"/>
		<path d="M9.6,7.9H8.2C8.1,7.9,8,8,8,8.1c0,0.1,0.1,0.2,0.2,0.2h1.4c0.1,0,0.2-0.1,0.2-0.2C9.8,8,9.7,7.9,9.6,7.9z"/>
	</g>
</g>
</svg>
